<?xml version="1.0" encoding="UTF-8" standalone="no"?>
<svg
   version="1.1"
   id="Layer_2"
   x="0px"
   y="0px"
   width="349.52386"
   height="350.4679"
   viewBox="0 0 349.52388 350.46791"
   enable-background="new 0 0 400.667 400.666"
   xml:space="preserve"
   xmlns="http://www.w3.org/2000/svg"
   xmlnsSvg="http://www.w3.org/2000/svg"><defs
   id="defs1094" />
<filter
   filterUnits="objectBoundingBox"
   id="AI_Shadow_1"
   x="-1.0179844"
   y="-1.0106965"
   width="3.0359688"
   height="3.0213931">
	<feGaussianBlur
   stdDeviation="5"
   result="blur"
   in="SourceAlpha"
   id="feGaussianBlur1044" />
	<feOffset
   dy="0"
   dx="0"
   result="offsetBlurredAlpha"
   in="blur"
   id="feOffset1046" />
	<feMerge
   id="feMerge1052">
		<feMergeNode
   in="offsetBlurredAlpha"
   id="feMergeNode1048" />
		<feMergeNode
   in="SourceGraphic"
   id="feMergeNode1050" />
	</feMerge>
</filter>








<g
   id="g1166"
   transform="matrix(1.117711,0,0,1.1194751,-49.263322,-48.845219)"><g
     filter="url(#AI_Shadow_1)"
     id="g1061">
	<polygon
   fill="#ff2a00"
   points="200.381,332.311 194.542,344.439 206.542,344.439 "
   id="polygon1059" />
</g><g
     filter="url(#AI_Shadow_1)"
     id="g1065">
	<polygon
   fill="#ffffff"
   points="294.272,294.239 298.743,307.01 307.272,298.481 "
   id="polygon1063" />
</g><g
     filter="url(#AI_Shadow_1)"
     id="g1069">
	<polygon
   fill="#ffffff"
   points="105.938,294.771 94.146,298.898 102.02,306.771 "
   id="polygon1067" />
</g><g
     filter="url(#AI_Shadow_1)"
     id="g1073">
	<polygon
   fill="#ff2a00"
   points="68.291,200.382 56.291,194.604 56.291,206.477 "
   id="polygon1071" />
</g><g
     filter="url(#AI_Shadow_1)"
     id="g1077">
	<polygon
   fill="#ffffff"
   points="106.001,106.041 101.801,94.041 93.787,102.055 "
   id="polygon1075" />
</g><g
     filter="url(#AI_Shadow_1)"
     id="g1081">
	<polygon
   fill="#ffffff"
   points="294.731,105.894 306.519,101.767 298.646,93.894 "
   id="polygon1079" />
</g><g
     filter="url(#AI_Shadow_1)"
     id="g1085">
	<polygon
   fill="#ff2a00"
   points="332.311,200.285 344.44,206.125 344.441,194.125 "
   id="polygon1083" />
</g><g
     filter="url(#AI_Shadow_1)"
     id="g1089">
	<polygon
   fill="#ff2a00"
   points="200.619,68.022 206.458,55.893 194.458,55.892 "
   id="polygon1087" />
</g></g>
</svg>
