<?xml version="1.0" encoding="UTF-8" standalone="no"?>
<svg
   version="1.1"
   id="Layer_2"
   x="0px"
   y="0px"
   width="322"
   height="322"
   viewBox="0 0 322.00001 322.00001"
   enable-background="new 0 0 400.667 400.666"
   xml:space="preserve"
   xmlns="http://www.w3.org/2000/svg"
   xmlnsSvg="http://www.w3.org/2000/svg"><defs
   id="defs454" />




















































































<g
   id="g663"
   transform="translate(-39.332993,-39)"><circle
     fill="#232323"
     cx="200.33299"
     cy="200"
     r="161"
     id="circle245" /><line
     fill="none"
     stroke="#ffffff"
     stroke-width="2"
     stroke-miterlimit="10"
     x1="200.33299"
     y1="350.099"
     x2="200.33299"
     y2="326.66699"
     id="line247" /><line
     fill="none"
     stroke="#ffffff"
     stroke-width="2"
     stroke-miterlimit="10"
     x1="213.416"
     y1="349.52802"
     x2="212.02299"
     y2="333.60901"
     id="line249" /><line
     fill="none"
     stroke="#ffffff"
     stroke-width="2"
     stroke-miterlimit="10"
     x1="239.18201"
     y1="344.98499"
     x2="235.04601"
     y2="329.54999"
     id="line251" /><line
     fill="none"
     stroke="#ffffff"
     stroke-width="2"
     stroke-miterlimit="10"
     x1="263.76801"
     y1="336.03601"
     x2="257.01501"
     y2="321.55399"
     id="line253" /><line
     fill="none"
     stroke="#ffffff"
     stroke-width="2"
     stroke-miterlimit="10"
     x1="286.427"
     y1="322.95499"
     x2="277.26099"
     y2="309.86499"
     id="line255" /><line
     fill="none"
     stroke="#ffffff"
     stroke-width="2"
     stroke-miterlimit="10"
     x1="306.47"
     y1="306.13699"
     x2="295.17001"
     y2="294.83701"
     id="line257" /><line
     fill="none"
     stroke="#ffffff"
     stroke-width="2"
     stroke-miterlimit="10"
     x1="323.289"
     y1="286.09399"
     x2="310.198"
     y2="276.92899"
     id="line259" /><line
     fill="none"
     stroke="#ffffff"
     stroke-width="2"
     stroke-miterlimit="10"
     x1="336.371"
     y1="263.436"
     x2="321.88699"
     y2="256.68301"
     id="line261" /><line
     fill="none"
     stroke="#ffffff"
     stroke-width="2"
     stroke-miterlimit="10"
     x1="345.32001"
     y1="238.85001"
     x2="329.883"
     y2="234.714"
     id="line263" /><line
     fill="none"
     stroke="#ffffff"
     stroke-width="2"
     stroke-miterlimit="10"
     x1="349.86401"
     y1="213.08299"
     x2="333.94299"
     y2="211.69099"
     id="line265" /><line
     fill="none"
     stroke="#ffffff"
     stroke-width="2"
     stroke-miterlimit="10"
     x1="349.86401"
     y1="186.918"
     x2="333.944"
     y2="188.313"
     id="line267" /><line
     fill="none"
     stroke="#ffffff"
     stroke-width="2"
     stroke-miterlimit="10"
     x1="345.32101"
     y1="161.151"
     x2="329.88501"
     y2="165.289"
     id="line269" /><line
     fill="none"
     stroke="#ffffff"
     stroke-width="2"
     stroke-miterlimit="10"
     x1="336.37299"
     y1="136.565"
     x2="321.89001"
     y2="143.32001"
     id="line271" /><line
     fill="none"
     stroke="#ffffff"
     stroke-width="2"
     stroke-miterlimit="10"
     x1="323.29099"
     y1="113.906"
     x2="310.202"
     y2="123.073"
     id="line273" /><line
     fill="none"
     stroke="#ffffff"
     stroke-width="2"
     stroke-miterlimit="10"
     x1="306.47198"
     y1="93.862999"
     x2="295.17401"
     y2="105.163"
     id="line275" /><line
     fill="none"
     stroke="#ffffff"
     stroke-width="2"
     stroke-miterlimit="10"
     x1="286.42899"
     y1="77.044998"
     x2="277.26501"
     y2="90.135002"
     id="line277" /><line
     fill="none"
     stroke="#ffffff"
     stroke-width="2"
     stroke-miterlimit="10"
     x1="263.771"
     y1="63.962002"
     x2="257.01901"
     y2="78.445999"
     id="line279" /><line
     fill="none"
     stroke="#ffffff"
     stroke-width="2"
     stroke-miterlimit="10"
     x1="239.185"
     y1="55.013"
     x2="235.05"
     y2="70.448997"
     id="line281" /><line
     fill="none"
     stroke="#ffffff"
     stroke-width="2"
     stroke-miterlimit="10"
     x1="213.418"
     y1="50.469002"
     x2="212.02699"
     y2="66.389"
     id="line283" /><line
     fill="none"
     stroke="#ffffff"
     stroke-width="2"
     stroke-miterlimit="10"
     x1="187.254"
     y1="50.469002"
     x2="188.64799"
     y2="66.388"
     id="line285" /><line
     fill="none"
     stroke="#ffffff"
     stroke-width="2"
     stroke-miterlimit="10"
     x1="161.48801"
     y1="55.012001"
     x2="165.625"
     y2="70.446999"
     id="line287" /><line
     fill="none"
     stroke="#ffffff"
     stroke-width="2"
     stroke-miterlimit="10"
     x1="136.901"
     y1="63.959999"
     x2="143.65601"
     y2="78.443001"
     id="line289" /><line
     fill="none"
     stroke="#ffffff"
     stroke-width="2"
     stroke-miterlimit="10"
     x1="114.242"
     y1="77.042"
     x2="123.409"
     y2="90.130997"
     id="line291" /><line
     fill="none"
     stroke="#ffffff"
     stroke-width="2"
     stroke-miterlimit="10"
     x1="94.198997"
     y1="93.860001"
     x2="105.499"
     y2="105.159"
     id="line293" /><line
     fill="none"
     stroke="#ffffff"
     stroke-width="2"
     stroke-miterlimit="10"
     x1="77.379997"
     y1="113.903"
     x2="90.470001"
     y2="123.067"
     id="line295" /><line
     fill="none"
     stroke="#ffffff"
     stroke-width="2"
     stroke-miterlimit="10"
     x1="64.297997"
     y1="136.562"
     x2="78.780998"
     y2="143.314"
     id="line297" /><line
     fill="none"
     stroke="#ffffff"
     stroke-width="2"
     stroke-miterlimit="10"
     x1="55.348999"
     y1="161.14799"
     x2="70.785004"
     y2="165.283"
     id="line299" /><line
     fill="none"
     stroke="#ffffff"
     stroke-width="2"
     stroke-miterlimit="10"
     x1="50.805"
     y1="186.91499"
     x2="66.723999"
     y2="188.306"
     id="line301" /><line
     fill="none"
     stroke="#ffffff"
     stroke-width="2"
     stroke-miterlimit="10"
     x1="50.804001"
     y1="213.07899"
     x2="66.723"
     y2="211.685"
     id="line303" /><line
     fill="none"
     stroke="#ffffff"
     stroke-width="2"
     stroke-miterlimit="10"
     x1="55.347"
     y1="238.845"
     x2="70.782997"
     y2="234.709"
     id="line305" /><line
     fill="none"
     stroke="#ffffff"
     stroke-width="2"
     stroke-miterlimit="10"
     x1="64.294998"
     y1="263.43201"
     x2="78.778"
     y2="256.67801"
     id="line307" /><line
     fill="none"
     stroke="#ffffff"
     stroke-width="2"
     stroke-miterlimit="10"
     x1="77.375999"
     y1="286.091"
     x2="90.466003"
     y2="276.92499"
     id="line309" /><line
     fill="none"
     stroke="#ffffff"
     stroke-width="2"
     stroke-miterlimit="10"
     x1="94.194"
     y1="306.13501"
     x2="105.494"
     y2="294.83401"
     id="line311" /><line
     fill="none"
     stroke="#ffffff"
     stroke-width="2"
     stroke-miterlimit="10"
     x1="114.237"
     y1="322.95401"
     x2="123.402"
     y2="309.86301"
     id="line313" /><line
     fill="none"
     stroke="#ffffff"
     stroke-width="2"
     stroke-miterlimit="10"
     x1="136.895"
     y1="336.03699"
     x2="143.64799"
     y2="321.55301"
     id="line315" /><line
     fill="none"
     stroke="#ffffff"
     stroke-width="2"
     stroke-miterlimit="10"
     x1="161.481"
     y1="344.98599"
     x2="165.617"
     y2="329.54901"
     id="line317" /><line
     fill="none"
     stroke="#ffffff"
     stroke-width="2"
     stroke-miterlimit="10"
     x1="187.248"
     y1="349.53"
     x2="188.64"
     y2="333.60999"
     id="line319" /><line
     fill="none"
     stroke="#ffffff"
     stroke-width="2"
     stroke-miterlimit="10"
     x1="226.39799"
     y1="347.819"
     x2="222.33"
     y2="324.742"
     id="line321" /><line
     fill="none"
     stroke="#ffffff"
     stroke-width="2"
     stroke-miterlimit="10"
     x1="251.67"
     y1="341.047"
     x2="243.657"
     y2="319.02802"
     id="line323" /><line
     fill="none"
     stroke="#ffffff"
     stroke-width="2"
     stroke-miterlimit="10"
     x1="275.383"
     y1="329.98999"
     x2="263.66699"
     y2="309.69699"
     id="line325" /><line
     fill="none"
     stroke="#ffffff"
     stroke-width="2"
     stroke-miterlimit="10"
     x1="296.81601"
     y1="314.983"
     x2="281.754"
     y2="297.03299"
     id="line327" /><line
     fill="none"
     stroke="#ffffff"
     stroke-width="2"
     stroke-miterlimit="10"
     x1="315.31699"
     y1="296.483"
     x2="297.367"
     y2="281.42001"
     id="line329" /><line
     fill="none"
     stroke="#ffffff"
     stroke-width="2"
     stroke-miterlimit="10"
     x1="330.32401"
     y1="275.04999"
     x2="310.03101"
     y2="263.33301"
     id="line331" /><line
     fill="none"
     stroke="#ffffff"
     stroke-width="2"
     stroke-miterlimit="10"
     x1="341.38101"
     y1="251.33701"
     x2="319.36301"
     y2="243.323"
     id="line333" /><line
     fill="none"
     stroke="#ffffff"
     stroke-width="2"
     stroke-miterlimit="10"
     x1="348.15302"
     y1="226.065"
     x2="325.078"
     y2="221.996"
     id="line335" /><line
     fill="none"
     stroke="#ffffff"
     stroke-width="2"
     stroke-miterlimit="10"
     x1="350.43301"
     y1="200"
     x2="327.00101"
     y2="200"
     id="line337" /><line
     fill="none"
     stroke="#ffffff"
     stroke-width="2"
     stroke-miterlimit="10"
     x1="348.15302"
     y1="173.936"
     x2="325.078"
     y2="178.004"
     id="line339" /><line
     fill="none"
     stroke="#ffffff"
     stroke-width="2"
     stroke-miterlimit="10"
     x1="341.38101"
     y1="148.664"
     x2="319.36301"
     y2="156.677"
     id="line341" /><line
     fill="none"
     stroke="#ffffff"
     stroke-width="2"
     stroke-miterlimit="10"
     x1="330.32401"
     y1="124.951"
     x2="310.03201"
     y2="136.66701"
     id="line343" /><line
     fill="none"
     stroke="#ffffff"
     stroke-width="2"
     stroke-miterlimit="10"
     x1="315.31699"
     y1="103.519"
     x2="297.36801"
     y2="118.58"
     id="line345" /><line
     fill="none"
     stroke="#ffffff"
     stroke-width="2"
     stroke-miterlimit="10"
     x1="296.81601"
     y1="85.017998"
     x2="281.755"
     y2="102.967"
     id="line347" /><line
     fill="none"
     stroke="#ffffff"
     stroke-width="2"
     stroke-miterlimit="10"
     x1="275.384"
     y1="70.011002"
     x2="263.668"
     y2="90.303001"
     id="line349" /><line
     fill="none"
     stroke="#ffffff"
     stroke-width="2"
     stroke-miterlimit="10"
     x1="251.672"
     y1="58.953999"
     x2="243.658"
     y2="80.971001"
     id="line351" /><line
     fill="none"
     stroke="#ffffff"
     stroke-width="2"
     stroke-miterlimit="10"
     x1="226.39999"
     y1="52.181999"
     x2="222.33099"
     y2="75.255997"
     id="line353" /><line
     fill="none"
     stroke="#ffffff"
     stroke-width="2"
     stroke-miterlimit="10"
     x1="200.33501"
     y1="49.901001"
     x2="200.334"
     y2="73.332001"
     id="line355" /><line
     fill="none"
     stroke="#ffffff"
     stroke-width="2"
     stroke-miterlimit="10"
     x1="174.271"
     y1="52.181"
     x2="178.339"
     y2="75.255997"
     id="line357" /><line
     fill="none"
     stroke="#ffffff"
     stroke-width="2"
     stroke-miterlimit="10"
     x1="148.99899"
     y1="58.952999"
     x2="157.01199"
     y2="80.971001"
     id="line359" /><line
     fill="none"
     stroke="#ffffff"
     stroke-width="2"
     stroke-miterlimit="10"
     x1="125.286"
     y1="70.010002"
     x2="137.00101"
     y2="90.302002"
     id="line361" /><line
     fill="none"
     stroke="#ffffff"
     stroke-width="2"
     stroke-miterlimit="10"
     x1="103.853"
     y1="85.016998"
     x2="118.915"
     y2="102.966"
     id="line363" /><line
     fill="none"
     stroke="#ffffff"
     stroke-width="2"
     stroke-miterlimit="10"
     x1="85.351997"
     y1="103.517"
     x2="103.302"
     y2="118.579"
     id="line365" /><line
     fill="none"
     stroke="#ffffff"
     stroke-width="2"
     stroke-miterlimit="10"
     x1="70.345001"
     y1="124.949"
     x2="90.638"
     y2="136.66499"
     id="line367" /><line
     fill="none"
     stroke="#ffffff"
     stroke-width="2"
     stroke-miterlimit="10"
     x1="59.287998"
     y1="148.662"
     x2="81.306999"
     y2="156.67599"
     id="line369" /><line
     fill="none"
     stroke="#ffffff"
     stroke-width="2"
     stroke-miterlimit="10"
     x1="52.514999"
     y1="173.93401"
     x2="75.592003"
     y2="178.002"
     id="line371" /><line
     fill="none"
     stroke="#ffffff"
     stroke-width="2"
     stroke-miterlimit="10"
     x1="50.235001"
     y1="199.99899"
     x2="73.667"
     y2="199.998"
     id="line373" /><line
     fill="none"
     stroke="#ffffff"
     stroke-width="2"
     stroke-miterlimit="10"
     x1="52.514999"
     y1="226.063"
     x2="75.591003"
     y2="221.993"
     id="line375" /><line
     fill="none"
     stroke="#ffffff"
     stroke-width="2"
     stroke-miterlimit="10"
     x1="59.286999"
     y1="251.33501"
     x2="81.306"
     y2="243.32001"
     id="line377" /><line
     fill="none"
     stroke="#ffffff"
     stroke-width="2"
     stroke-miterlimit="10"
     x1="70.343002"
     y1="275.048"
     x2="90.637001"
     y2="263.33099"
     id="line379" /><line
     fill="none"
     stroke="#ffffff"
     stroke-width="2"
     stroke-miterlimit="10"
     x1="85.349998"
     y1="296.48099"
     x2="103.301"
     y2="281.41699"
     id="line381" /><line
     fill="none"
     stroke="#ffffff"
     stroke-width="2"
     stroke-miterlimit="10"
     x1="103.851"
     y1="314.98199"
     x2="118.914"
     y2="297.03"
     id="line383" /><line
     fill="none"
     stroke="#ffffff"
     stroke-width="2"
     stroke-miterlimit="10"
     x1="125.284"
     y1="329.98901"
     x2="137"
     y2="309.69501"
     id="line385" /><line
     fill="none"
     stroke="#ffffff"
     stroke-width="2"
     stroke-miterlimit="10"
     x1="148.99699"
     y1="341.047"
     x2="157.00999"
     y2="319.026"
     id="line387" /><line
     fill="none"
     stroke="#ffffff"
     stroke-width="2"
     stroke-miterlimit="10"
     x1="174.269"
     y1="347.819"
     x2="178.33701"
     y2="324.741"
     id="line389" /><g
     id="g393">
	<path
   fill="#ffffff"
   stroke="#ffffff"
   stroke-miterlimit="10"
   d="M 192.637,101.333 V 79.786 h 0.469 l 14.341,16.518 V 79.786 h 2.124 v 21.548 h -0.483 L 194.864,85.018 v 16.316 h -2.227 z"
   id="path391" />
</g><g
     id="g399">
	<path
   fill="#ffffff"
   stroke="#ffffff"
   stroke-miterlimit="10"
   d="m 135.018,109.119 -1.585,0.916 c -0.452,-1.449 -0.468,-2.755 -0.05,-3.919 0.419,-1.162 1.186,-2.064 2.299,-2.708 0.811,-0.468 1.674,-0.719 2.588,-0.754 0.915,-0.035 1.746,0.15 2.492,0.556 0.746,0.406 1.316,0.95 1.711,1.634 0.773,1.339 0.72,2.784 -0.161,4.336 0.923,-0.128 1.792,-0.038 2.608,0.27 1.153,0.434 2.024,1.162 2.614,2.184 0.509,0.882 0.762,1.856 0.759,2.925 -0.004,1.068 -0.281,2.053 -0.832,2.954 -0.552,0.9 -1.324,1.638 -2.317,2.211 -1.34,0.773 -2.68,1.032 -4.02,0.778 -1.341,-0.256 -2.579,-1.051 -3.718,-2.387 l 1.522,-0.879 c 0.851,0.854 1.655,1.362 2.416,1.523 0.971,0.201 1.953,0.014 2.946,-0.56 1.128,-0.651 1.838,-1.512 2.131,-2.584 0.293,-1.07 0.178,-2.061 -0.347,-2.97 -0.351,-0.606 -0.849,-1.075 -1.496,-1.406 -0.647,-0.331 -1.335,-0.465 -2.063,-0.401 -0.729,0.064 -1.715,0.412 -2.957,1.044 l -0.823,-1.427 c 0.712,-0.411 1.287,-0.91 1.729,-1.498 0.44,-0.588 0.681,-1.152 0.721,-1.692 0.041,-0.54 -0.07,-1.039 -0.335,-1.498 -0.391,-0.676 -0.998,-1.105 -1.822,-1.288 -0.824,-0.182 -1.648,-0.034 -2.473,0.441 -0.67,0.387 -1.139,0.909 -1.408,1.566 -0.268,0.658 -0.311,1.535 -0.129,2.633 z"
   id="path395" />
	<path
   fill="#ffffff"
   stroke="#ffffff"
   stroke-miterlimit="10"
   d="m 147.018,102.192 -1.586,0.915 c -0.452,-1.449 -0.469,-2.755 -0.05,-3.918 0.419,-1.163 1.185,-2.065 2.298,-2.708 0.811,-0.468 1.674,-0.719 2.588,-0.754 0.916,-0.034 1.746,0.151 2.492,0.556 0.747,0.406 1.317,0.95 1.712,1.633 0.773,1.34 0.72,2.785 -0.161,4.336 0.922,-0.128 1.791,-0.038 2.608,0.27 1.153,0.434 2.024,1.162 2.614,2.184 0.509,0.881 0.762,1.856 0.758,2.924 -0.003,1.068 -0.28,2.053 -0.832,2.954 -0.551,0.9 -1.323,1.638 -2.317,2.212 -1.339,0.773 -2.679,1.032 -4.019,0.777 -1.342,-0.256 -2.58,-1.05 -3.718,-2.386 l 1.522,-0.879 c 0.85,0.854 1.654,1.362 2.416,1.523 0.971,0.201 1.953,0.015 2.947,-0.56 1.127,-0.65 1.838,-1.512 2.131,-2.583 0.292,-1.071 0.177,-2.061 -0.349,-2.97 -0.35,-0.606 -0.849,-1.075 -1.495,-1.406 -0.646,-0.331 -1.335,-0.465 -2.064,-0.401 -0.729,0.064 -1.714,0.412 -2.955,1.044 l -0.824,-1.427 c 0.711,-0.411 1.287,-0.91 1.729,-1.498 0.439,-0.588 0.681,-1.152 0.721,-1.692 0.041,-0.54 -0.071,-1.039 -0.336,-1.498 -0.391,-0.676 -0.998,-1.105 -1.821,-1.288 -0.824,-0.182 -1.648,-0.035 -2.474,0.441 -0.669,0.387 -1.138,0.909 -1.406,1.566 -0.27,0.657 -0.313,1.535 -0.129,2.633 z"
   id="path397" />
</g><g
     id="g405">
	<path
   fill="#ffffff"
   stroke="#ffffff"
   stroke-miterlimit="10"
   d="m 98.427,152.854 -0.915,1.585 c -1.116,-1.029 -1.783,-2.152 -2.003,-3.369 -0.218,-1.216 -0.006,-2.381 0.637,-3.495 0.468,-0.81 1.09,-1.459 1.864,-1.947 0.775,-0.487 1.587,-0.742 2.436,-0.764 0.85,-0.022 1.615,0.165 2.299,0.559 1.34,0.773 2.016,2.052 2.029,3.835 0.734,-0.572 1.532,-0.928 2.394,-1.07 1.215,-0.2 2.334,-0.006 3.355,0.584 0.882,0.509 1.588,1.227 2.119,2.154 0.531,0.927 0.783,1.918 0.757,2.974 -0.027,1.056 -0.328,2.08 -0.901,3.074 -0.773,1.339 -1.805,2.233 -3.092,2.683 -1.29,0.45 -2.76,0.38 -4.413,-0.208 l 0.879,-1.522 c 1.163,0.314 2.114,0.352 2.854,0.111 0.941,-0.312 1.699,-0.965 2.273,-1.958 0.65,-1.127 0.835,-2.229 0.553,-3.303 -0.281,-1.074 -0.877,-1.875 -1.786,-2.399 -0.606,-0.35 -1.272,-0.507 -1.998,-0.47 -0.726,0.037 -1.388,0.265 -1.988,0.685 -0.599,0.42 -1.278,1.214 -2.038,2.382 l -1.427,-0.824 c 0.411,-0.712 0.66,-1.433 0.748,-2.162 0.087,-0.729 0.014,-1.338 -0.222,-1.826 -0.234,-0.488 -0.581,-0.864 -1.04,-1.129 -0.676,-0.391 -1.417,-0.458 -2.222,-0.205 -0.805,0.255 -1.444,0.794 -1.921,1.619 -0.387,0.67 -0.531,1.356 -0.436,2.06 0.097,0.706 0.498,1.488 1.205,2.346 z"
   id="path401" />
	<path
   fill="#ffffff"
   stroke="#ffffff"
   stroke-miterlimit="10"
   d="m 108.273,145.444 c -2.051,-1.184 -3.509,-2.319 -4.376,-3.407 -0.866,-1.087 -1.355,-2.199 -1.471,-3.336 -0.113,-1.137 0.116,-2.203 0.69,-3.196 0.581,-1.008 1.399,-1.752 2.452,-2.235 1.054,-0.481 2.299,-0.625 3.736,-0.429 1.438,0.196 3.137,0.859 5.096,1.991 1.952,1.127 3.371,2.259 4.256,3.395 0.886,1.136 1.385,2.286 1.497,3.451 0.112,1.165 -0.122,2.25 -0.704,3.258 -0.574,0.993 -1.377,1.724 -2.407,2.19 -1.03,0.467 -2.24,0.598 -3.63,0.392 -1.39,-0.206 -3.102,-0.898 -5.139,-2.074 z m 0.875,-1.454 c 1.757,1.014 3.175,1.624 4.255,1.83 1.08,0.205 2.03,0.136 2.85,-0.209 0.82,-0.344 1.427,-0.858 1.821,-1.542 0.398,-0.691 0.544,-1.467 0.435,-2.329 -0.108,-0.861 -0.529,-1.71 -1.26,-2.546 -0.884,-1.027 -2.104,-1.99 -3.663,-2.89 -1.566,-0.904 -2.948,-1.471 -4.146,-1.703 -1.197,-0.23 -2.203,-0.175 -3.017,0.168 -0.814,0.342 -1.417,0.852 -1.808,1.529 -0.398,0.691 -0.542,1.473 -0.43,2.345 0.112,0.874 0.526,1.728 1.243,2.564 0.717,0.837 1.957,1.765 3.72,2.783 z"
   id="path403" />
</g><g
     id="g411">
	<path
   fill="#ffffff"
   stroke="#ffffff"
   stroke-miterlimit="10"
   d="m 109.917,264.448 0.86,1.49 c -1.558,0.843 -3.112,1.057 -4.665,0.643 -1.552,-0.414 -2.745,-1.344 -3.579,-2.789 -0.826,-1.431 -1.033,-2.855 -0.619,-4.272 0.412,-1.418 1.246,-2.489 2.501,-3.214 0.882,-0.509 1.83,-0.775 2.846,-0.799 1.016,-0.025 2.534,0.191 4.554,0.646 l 6.408,1.466 -4.143,-7.175 1.502,-0.866 6.097,10.561 -9.851,-2.234 c -1.987,-0.459 -3.397,-0.69 -4.23,-0.693 -0.834,-0.002 -1.597,0.196 -2.288,0.596 -0.874,0.504 -1.439,1.265 -1.694,2.281 -0.255,1.016 -0.109,1.997 0.436,2.941 0.574,0.993 1.383,1.628 2.425,1.905 1.043,0.274 2.19,0.112 3.44,-0.487 z"
   id="path407" />
	<path
   fill="#ffffff"
   stroke="#ffffff"
   stroke-miterlimit="10"
   d="m 93.859,248.767 -0.182,-0.315 10.846,-6.262 -1.086,-1.882 1.48,-0.854 1.086,1.882 3.616,-2.087 0.891,1.543 -3.616,2.088 4.297,7.441 z m 11.556,-5.034 -6.531,3.771 9.191,0.836 z"
   id="path409" />
</g><g
     id="g417">
	<path
   fill="#ffffff"
   stroke="#ffffff"
   stroke-miterlimit="10"
   d="m 153.804,300.688 1.491,0.86 c -0.928,1.509 -2.167,2.472 -3.72,2.889 -1.551,0.417 -3.049,0.208 -4.494,-0.626 -1.431,-0.826 -2.322,-1.955 -2.673,-3.391 -0.352,-1.434 -0.165,-2.778 0.56,-4.033 0.509,-0.882 1.198,-1.586 2.065,-2.115 0.867,-0.529 2.29,-1.102 4.267,-1.718 l 6.282,-1.935 -7.174,-4.142 0.867,-1.502 10.561,6.098 -9.648,2.991 c -1.951,0.595 -3.288,1.1 -4.011,1.514 -0.723,0.415 -1.284,0.969 -1.683,1.66 -0.505,0.873 -0.614,1.815 -0.326,2.823 0.287,1.007 0.903,1.784 1.847,2.329 0.994,0.573 2.012,0.719 3.053,0.438 1.041,-0.282 1.953,-0.995 2.736,-2.14 z"
   id="path413" />
	<path
   fill="#ffffff"
   stroke="#ffffff"
   stroke-miterlimit="10"
   d="m 137.497,297.756 -3.055,-1.764 8.978,-15.551 1.543,0.891 -8.1,14.029 2.442,1.409 z"
   id="path415" />
</g><g
     id="g423">
	<path
   fill="#ffffff"
   stroke="#ffffff"
   stroke-miterlimit="10"
   d="m 265.364,296.643 -3.056,1.764 -8.979,-15.551 1.544,-0.892 8.099,14.029 2.442,-1.41 z"
   id="path419" />
	<path
   fill="#ffffff"
   stroke="#ffffff"
   stroke-miterlimit="10"
   d="m 248.674,306.278 -0.854,-1.479 5.525,-3.19 -1.67,-4.689 c -0.562,0.588 -1.112,1.038 -1.655,1.352 -1.415,0.817 -2.855,1.017 -4.321,0.6 -1.466,-0.418 -2.627,-1.366 -3.481,-2.847 -0.59,-1.021 -0.895,-2.096 -0.915,-3.221 -0.021,-1.126 0.242,-2.148 0.787,-3.069 0.544,-0.921 1.345,-1.686 2.402,-2.296 1.262,-0.729 2.548,-0.957 3.86,-0.686 1.313,0.272 2.408,0.971 3.285,2.1 l -1.597,0.922 c -0.466,-0.53 -0.949,-0.899 -1.45,-1.108 -0.501,-0.209 -1.055,-0.291 -1.664,-0.245 -0.607,0.046 -1.172,0.219 -1.693,0.52 -1.021,0.59 -1.676,1.484 -1.963,2.681 -0.285,1.198 -0.093,2.376 0.578,3.538 0.604,1.048 1.428,1.709 2.468,1.981 1.041,0.272 2.114,0.089 3.221,-0.55 0.916,-0.529 1.865,-1.449 2.848,-2.758 l 3.024,8.558 z"
   id="path421" />
</g><g
     id="g429">
	<path
   fill="#ffffff"
   stroke="#ffffff"
   stroke-miterlimit="10"
   d="m 305.018,250.334 -1.765,3.056 -15.551,-8.979 0.892,-1.543 14.028,8.099 1.41,-2.442 z"
   id="path425" />
	<path
   fill="#ffffff"
   stroke="#ffffff"
   stroke-miterlimit="10"
   d="m 295.219,256.076 0.86,-1.49 c 1.509,0.928 2.472,2.167 2.889,3.719 0.417,1.551 0.209,3.05 -0.626,4.495 -0.825,1.431 -1.955,2.322 -3.391,2.672 -1.434,0.352 -2.778,0.165 -4.033,-0.56 -0.881,-0.509 -1.586,-1.197 -2.115,-2.064 -0.528,-0.868 -1.102,-2.29 -1.718,-4.267 l -1.935,-6.282 -4.142,7.174 -1.501,-0.867 6.097,-10.561 2.991,9.648 c 0.595,1.95 1.1,3.287 1.514,4.011 0.416,0.724 0.969,1.284 1.66,1.684 0.874,0.505 1.815,0.614 2.823,0.326 1.008,-0.287 1.784,-0.903 2.329,-1.848 0.574,-0.993 0.719,-2.012 0.438,-3.053 -0.281,-1.042 -0.995,-1.954 -2.14,-2.737 z"
   id="path427" />
</g><g
     id="g433">
	<path
   fill="#ffffff"
   stroke="#ffffff"
   stroke-miterlimit="10"
   d="m 302.287,142.898 -0.097,1.762 -8.791,-0.532 c 0.516,0.455 0.916,0.929 1.201,1.423 0.713,1.235 0.873,2.541 0.479,3.917 -0.395,1.376 -1.244,2.44 -2.547,3.193 -0.896,0.517 -1.824,0.775 -2.787,0.776 -0.963,10e-4 -1.879,-0.259 -2.747,-0.778 -0.868,-0.519 -1.557,-1.22 -2.066,-2.102 -0.493,-0.854 -0.744,-1.765 -0.753,-2.733 -0.01,-0.968 0.239,-1.876 0.746,-2.724 0.507,-0.848 1.187,-1.518 2.039,-2.01 0.635,-0.366 1.376,-0.623 2.227,-0.77 0.85,-0.147 1.96,-0.174 3.33,-0.08 z m -9.264,3.072 c -0.522,-0.903 -1.286,-1.491 -2.292,-1.762 -1.007,-0.27 -1.964,-0.143 -2.874,0.383 -0.902,0.521 -1.488,1.284 -1.757,2.291 -0.269,1.008 -0.142,1.963 0.379,2.866 0.521,0.903 1.286,1.491 2.292,1.762 1.007,0.271 1.961,0.146 2.863,-0.376 0.909,-0.524 1.498,-1.291 1.767,-2.298 0.269,-1.007 0.144,-1.963 -0.378,-2.866 z"
   id="path431" />
</g><g
     id="g437">
	<path
   fill="#ffffff"
   stroke="#ffffff"
   stroke-miterlimit="10"
   d="m 252.478,100.756 -1.585,-0.915 c 1.029,-1.116 2.152,-1.783 3.369,-2.003 1.216,-0.218 2.381,-0.006 3.495,0.637 0.81,0.468 1.459,1.09 1.947,1.864 0.487,0.775 0.742,1.587 0.764,2.436 0.022,0.85 -0.165,1.615 -0.559,2.299 -0.773,1.34 -2.052,2.016 -3.835,2.029 0.572,0.734 0.928,1.532 1.07,2.394 0.2,1.215 0.006,2.334 -0.584,3.355 -0.509,0.882 -1.227,1.588 -2.154,2.119 -0.927,0.531 -1.918,0.783 -2.974,0.757 -1.056,-0.027 -2.08,-0.328 -3.074,-0.901 -1.339,-0.773 -2.233,-1.805 -2.683,-3.092 -0.45,-1.29 -0.38,-2.76 0.208,-4.413 l 1.522,0.879 c -0.314,1.163 -0.352,2.114 -0.111,2.854 0.312,0.941 0.965,1.699 1.958,2.273 1.127,0.65 2.229,0.835 3.303,0.553 1.074,-0.281 1.875,-0.877 2.399,-1.786 0.35,-0.606 0.507,-1.272 0.47,-1.998 -0.037,-0.726 -0.265,-1.388 -0.685,-1.988 -0.42,-0.599 -1.214,-1.278 -2.382,-2.038 l 0.824,-1.427 c 0.712,0.411 1.433,0.66 2.162,0.748 0.729,0.087 1.338,0.014 1.826,-0.222 0.488,-0.234 0.864,-0.581 1.129,-1.04 0.391,-0.676 0.458,-1.417 0.205,-2.222 -0.255,-0.805 -0.794,-1.444 -1.619,-1.921 -0.67,-0.387 -1.356,-0.531 -2.06,-0.436 -0.706,0.096 -1.488,0.498 -2.346,1.205 z"
   id="path435" />
</g><g
     id="g441">
	<path
   fill="#ffffff"
   stroke="#ffffff"
   stroke-miterlimit="10"
   d="m 80.119,212.927 v -2.212 l 15.527,-4.402 -15.527,-6.177 v -0.447 l 15.527,-6.105 -15.527,-4.477 v -2.195 l 21.548,6.191 v 0.4 l -16.304,6.394 16.304,6.519 v 0.402 z"
   id="path439" />
</g><g
     id="g445">
	<path
   fill="#ffffff"
   stroke="#ffffff"
   stroke-miterlimit="10"
   d="m 206.271,302.679 -1.831,1.099 c -1.289,-2.373 -2.778,-3.56 -4.468,-3.56 -0.723,0 -1.401,0.168 -2.036,0.505 -0.635,0.337 -1.118,0.789 -1.45,1.355 -0.332,0.566 -0.498,1.167 -0.498,1.802 0,0.723 0.244,1.431 0.732,2.124 0.674,0.957 1.904,2.109 3.691,3.457 1.797,1.357 2.915,2.339 3.354,2.944 0.762,1.016 1.143,2.114 1.143,3.296 0,0.938 -0.225,1.792 -0.674,2.563 -0.449,0.771 -1.082,1.379 -1.897,1.824 -0.815,0.445 -1.702,0.667 -2.659,0.667 -1.016,0 -1.965,-0.251 -2.849,-0.754 -0.884,-0.503 -1.819,-1.428 -2.805,-2.776 l 1.758,-1.333 c 0.811,1.074 1.501,1.782 2.073,2.124 0.572,0.342 1.194,0.513 1.868,0.513 0.869,0 1.58,-0.264 2.131,-0.791 0.551,-0.527 0.828,-1.177 0.828,-1.948 0,-0.469 -0.098,-0.923 -0.293,-1.362 -0.195,-0.439 -0.552,-0.918 -1.069,-1.436 -0.283,-0.273 -1.211,-0.991 -2.783,-2.153 -1.865,-1.377 -3.145,-2.603 -3.838,-3.677 -0.693,-1.074 -1.04,-2.153 -1.04,-3.237 0,-1.563 0.593,-2.92 1.78,-4.072 1.187,-1.152 2.629,-1.729 4.329,-1.729 1.309,0 2.495,0.349 3.56,1.047 1.065,0.698 2.045,1.868 2.943,3.508 z"
   id="path443" />
</g><g
     id="g449">
	<path
   fill="#ffffff"
   stroke="#ffffff"
   stroke-miterlimit="10"
   d="m 320.547,193.303 v 12.349 h -2.109 v -10.195 h -6.753 v 10.107 h -2.109 v -10.107 h -8.467 v 10.107 H 299 v -12.261 z"
   id="path447" />
</g></g>
</svg>
