<?xml version="1.0" encoding="UTF-8" standalone="no"?>
<svg
   version="1.1"
   x="0px"
   y="0px"
   width="201.9995"
   height="118.397"
   viewBox="0 0 252.49937 147.99625"
   enable-background="new 0 0 400.667 400.666"
   xml:space="preserve"
   id="svg19788"
   xmlnsSvg="http://www.w3.org/2000/svg"
   sodipodi:docname="horizon_ball.svg"
   xmlns:inkscape="http://www.inkscape.org/namespaces/inkscape"
   xmlns:sodipodi="http://sodipodi.sourceforge.net/DTD/sodipodi-0.dtd"
   xmlns="http://www.w3.org/2000/svg"
   xmlns:svg="http://www.w3.org/2000/svg"><sodipodi:namedview
   id="namedview936"
   pagecolor="#ffffff"
   bordercolor="#000000"
   borderopacity="0.25"
   inkscape:showpageshadow="2"
   inkscape:pageopacity="0.0"
   inkscape:pagecheckerboard="0"
   inkscape:deskcolor="#d1d1d1"
   showgrid="false" /><defs
   id="defs19792" />
<filter
   filterUnits="objectBoundingBox"
   id="AI_Shadow_1"
   x="-0.059406236"
   y="-0.078947365"
   width="1.1188124"
   height="1.1578947">
	<feGaussianBlur
   stdDeviation="5"
   result="blur"
   in="SourceAlpha"
   id="feGaussianBlur19698" />
	<feOffset
   dy="0"
   dx="0"
   result="offsetBlurredAlpha"
   in="blur"
   id="feOffset19700" />
	<feMerge
   id="feMerge19706">
		<feMergeNode
   in="offsetBlurredAlpha"
   id="feMergeNode19702" />
		<feMergeNode
   in="SourceGraphic"
   id="feMergeNode19704" />
	</feMerge>
</filter>
	
	
	
		
	
		
	
	
		
	
		
	
		
	
		
	
		
	
	
	
	
	
	
	
	<g
   id="g19921"
   transform="translate(-75.11443,-85.268523)"><g
     id="g19877"
     transform="translate(12.543713,-35.747666)"><g
       id="g19834"><g
         id="g19768"
         transform="translate(-49.266898,-44.449353)"
         style="stroke:#000000;stroke-opacity:1">
		
		
	<g
   id="g4928"
   transform="translate(28.14582,28.392461)" /></g><g
         id="g5226"
         transform="translate(141.79343,186.89601)"><text
           xml:space="preserve"
           style="font-style:normal;font-variant:normal;font-weight:normal;font-stretch:normal;font-size:16px;font-family:FreeMono;-inkscape-font-specification:'FreeMono, Normal';font-variant-ligatures:normal;font-variant-caps:normal;font-variant-numeric:normal;font-variant-east-asian:normal;fill:#000000;fill-opacity:0;stroke:#000000;stroke-width:2;stroke-opacity:1"
           x="117.20933"
           y="129.63402"
           id="text5682"><tspan
             sodipodi:role="line"
             id="tspan5680"
             style="stroke-width:2"
             x="117.20933"
             y="129.63402" /></text><g
           id="g5767"
           transform="translate(-107.29729,-85.476987)"><line
             fill="none"
             stroke="#ffffff"
             stroke-width="2"
             stroke-miterlimit="10"
             x1="137.92372"
             y1="144.04968"
             x2="162.92372"
             y2="144.04968"
             id="line19724"
             style="stroke:#000000;stroke-opacity:1" /><line
             fill="none"
             stroke="#ffffff"
             stroke-width="2"
             stroke-miterlimit="10"
             x1="138.11172"
             y1="170.17468"
             x2="163.11172"
             y2="170.17468"
             id="line19726"
             style="stroke:#000000;stroke-opacity:1" /><line
             fill="none"
             stroke="#ffffff"
             stroke-width="2"
             stroke-miterlimit="10"
             x1="137.97072"
             y1="198.09569"
             x2="162.97072"
             y2="198.09569"
             id="line19728"
             style="stroke:#000000;stroke-opacity:1" /><line
             fill="none"
             stroke="#ffffff"
             stroke-width="2"
             stroke-miterlimit="10"
             x1="138.11172"
             y1="116.04968"
             x2="163.11172"
             y2="116.04968"
             id="line19730"
             style="fill:#000000;fill-opacity:0;stroke:#000000;stroke-opacity:1;image-rendering:auto" /><line
             fill="none"
             stroke="#ffffff"
             stroke-width="2"
             stroke-miterlimit="10"
             x1="129.98672"
             y1="130.08069"
             x2="169.98672"
             y2="130.08069"
             id="line19732"
             style="stroke:#000000;stroke-opacity:1" /><line
             fill="none"
             stroke="#ffffff"
             stroke-width="2"
             stroke-miterlimit="10"
             x1="129.98672"
             y1="184.17468"
             x2="169.98672"
             y2="184.17468"
             id="line19734"
             style="stroke:#000000;stroke-opacity:1" /><line
             fill="none"
             stroke="#ffffff"
             stroke-width="2"
             stroke-miterlimit="10"
             x1="119.98672"
             y1="212.00769"
             x2="179.98672"
             y2="212.00769"
             id="line19736" /><line
             fill="none"
             stroke="#ffffff"
             stroke-width="2"
             stroke-miterlimit="10"
             x1="119.98672"
             y1="102.00868"
             x2="179.98672"
             y2="102.00868"
             id="line19738"
             style="stroke:#000000;stroke-opacity:1" /><g
             id="g19750"
             transform="translate(-50.055283,-43.324311)"
             style="stroke:#000000;stroke-opacity:1">
		<path
   fill="#ffffff"
   d="m 155.584,143.883 h -1.466 c 0.04,-0.852 0.307,-1.523 0.803,-2.011 0.496,-0.489 1.133,-0.733 1.91,-0.733 0.48,0 0.903,0.101 1.27,0.304 0.367,0.202 0.661,0.494 0.881,0.875 0.221,0.382 0.331,0.769 0.331,1.163 0,0.469 -0.133,0.974 -0.4,1.515 -0.267,0.541 -0.755,1.18 -1.464,1.917 l -0.887,0.935 h 2.816 v 1.391 h -5.473 v -0.72 l 2.444,-2.492 c 0.591,-0.598 0.984,-1.079 1.179,-1.442 0.195,-0.363 0.292,-0.692 0.292,-0.985 0,-0.304 -0.101,-0.556 -0.303,-0.755 -0.203,-0.198 -0.463,-0.298 -0.782,-0.298 -0.322,0 -0.591,0.12 -0.806,0.36 -0.215,0.24 -0.33,0.564 -0.345,0.976 z"
   id="path19746"
   style="stroke:#000000;stroke-opacity:1" />
		<path
   fill="#ffffff"
   d="m 162.884,141.138 c 0.577,0 1.073,0.142 1.491,0.424 0.417,0.283 0.739,0.715 0.967,1.297 0.227,0.582 0.341,1.392 0.341,2.43 0,1.049 -0.115,1.866 -0.347,2.449 -0.23,0.583 -0.542,1.012 -0.932,1.287 -0.39,0.273 -0.883,0.411 -1.477,0.411 -0.594,0 -1.094,-0.138 -1.499,-0.414 -0.405,-0.276 -0.722,-0.695 -0.951,-1.257 -0.229,-0.562 -0.344,-1.362 -0.344,-2.401 0,-1.45 0.224,-2.501 0.671,-3.153 0.499,-0.715 1.192,-1.073 2.08,-1.073 z m 0.034,1.429 c -0.253,0 -0.479,0.082 -0.675,0.244 -0.196,0.163 -0.347,0.443 -0.45,0.841 -0.103,0.398 -0.155,0.979 -0.155,1.746 0,0.999 0.119,1.689 0.356,2.071 0.238,0.381 0.546,0.572 0.924,0.572 0.365,0 0.654,-0.181 0.869,-0.542 0.261,-0.437 0.391,-1.167 0.391,-2.191 0,-1.039 -0.117,-1.754 -0.351,-2.148 -0.234,-0.394 -0.536,-0.593 -0.909,-0.593 z"
   id="path19748"
   style="stroke:#000000;stroke-opacity:1" />
	</g><g
             id="g19756"
             transform="translate(-50.055283,-43.324311)"
             style="stroke:#000000;stroke-opacity:1">
		<path
   fill="#ffffff"
   d="m 234.958,143.784 h -1.466 c 0.04,-0.852 0.307,-1.523 0.803,-2.011 0.496,-0.489 1.133,-0.733 1.91,-0.733 0.48,0 0.903,0.101 1.27,0.304 0.367,0.202 0.661,0.494 0.881,0.875 0.221,0.382 0.331,0.769 0.331,1.163 0,0.469 -0.133,0.974 -0.4,1.515 -0.267,0.541 -0.755,1.18 -1.464,1.917 l -0.887,0.935 h 2.816 v 1.391 h -5.473 v -0.72 l 2.444,-2.492 c 0.591,-0.598 0.984,-1.079 1.179,-1.442 0.195,-0.363 0.292,-0.692 0.292,-0.985 0,-0.304 -0.101,-0.556 -0.303,-0.755 -0.203,-0.198 -0.463,-0.298 -0.782,-0.298 -0.322,0 -0.591,0.12 -0.806,0.36 -0.215,0.24 -0.33,0.564 -0.345,0.976 z"
   id="path19752"
   style="stroke:#000000;stroke-opacity:1" />
		<path
   fill="#ffffff"
   d="m 242.258,141.039 c 0.577,0 1.073,0.142 1.491,0.424 0.417,0.283 0.739,0.715 0.967,1.297 0.227,0.582 0.341,1.392 0.341,2.43 0,1.049 -0.115,1.866 -0.347,2.449 -0.23,0.583 -0.542,1.012 -0.932,1.287 -0.39,0.273 -0.883,0.411 -1.477,0.411 -0.594,0 -1.094,-0.138 -1.499,-0.414 -0.405,-0.276 -0.722,-0.695 -0.951,-1.257 -0.229,-0.562 -0.344,-1.362 -0.344,-2.401 0,-1.45 0.224,-2.501 0.671,-3.153 0.499,-0.715 1.192,-1.073 2.08,-1.073 z m 0.034,1.429 c -0.253,0 -0.479,0.082 -0.675,0.244 -0.196,0.163 -0.347,0.443 -0.45,0.841 -0.103,0.398 -0.155,0.979 -0.155,1.746 0,0.999 0.119,1.689 0.356,2.071 0.238,0.381 0.546,0.572 0.924,0.572 0.365,0 0.654,-0.181 0.869,-0.542 0.261,-0.437 0.391,-1.167 0.391,-2.191 0,-1.039 -0.117,-1.754 -0.351,-2.148 -0.234,-0.394 -0.536,-0.593 -0.909,-0.593 z"
   id="path19754"
   style="stroke:#000000;stroke-opacity:1" />
	</g><path
             fill="#ffffff"
             d="m 166.644,223.224 h 2.25 v 7.901 h -1.493 v -6.488 h -1.627 z"
             id="path19764"
             style="stroke:#000000;stroke-opacity:1"
             transform="translate(-49.266898,-44.449353)" /><path
             fill="#ffffff"
             d="m 172.84,223.025 c 0.577,0 1.073,0.142 1.491,0.424 0.417,0.283 0.739,0.715 0.967,1.297 0.227,0.582 0.341,1.392 0.341,2.43 0,1.049 -0.115,1.866 -0.347,2.449 -0.23,0.583 -0.542,1.012 -0.932,1.287 -0.39,0.273 -0.883,0.411 -1.477,0.411 -0.594,0 -1.094,-0.138 -1.499,-0.414 -0.405,-0.276 -0.722,-0.695 -0.951,-1.257 -0.229,-0.562 -0.344,-1.362 -0.344,-2.401 0,-1.45 0.224,-2.501 0.671,-3.153 0.499,-0.715 1.192,-1.073 2.08,-1.073 z m 0.035,1.429 c -0.253,0 -0.479,0.082 -0.675,0.244 -0.196,0.163 -0.347,0.443 -0.45,0.841 -0.103,0.398 -0.155,0.979 -0.155,1.746 0,0.999 0.119,1.689 0.356,2.071 0.238,0.381 0.546,0.572 0.924,0.572 0.365,0 0.654,-0.181 0.869,-0.542 0.261,-0.437 0.391,-1.167 0.391,-2.191 0,-1.039 -0.117,-1.754 -0.351,-2.148 -0.234,-0.394 -0.537,-0.593 -0.909,-0.593 z"
             id="path19766"
             style="stroke:#000000;stroke-opacity:1"
             transform="translate(-49.266898,-44.449353)" /><line
             fill="none"
             stroke="#ffffff"
             stroke-width="2"
             stroke-miterlimit="10"
             x1="159.24188"
             y1="132.08728"
             x2="184.24188"
             y2="132.08728"
             id="line19724-0"
             style="stroke:#000000;stroke-opacity:1"
             transform="translate(-21.121078,-16.056893)" /><line
             fill="none"
             stroke="#ffffff"
             stroke-width="2"
             stroke-miterlimit="10"
             x1="159.42989"
             y1="104.08727"
             x2="184.42989"
             y2="104.08727"
             id="line19730-6"
             style="fill:#000000;fill-opacity:0;stroke:#000000;stroke-opacity:1;image-rendering:auto"
             transform="translate(-21.121078,-16.056893)" /><line
             fill="none"
             stroke="#ffffff"
             stroke-width="2"
             stroke-miterlimit="10"
             x1="141.30487"
             y1="90.046272"
             x2="201.30489"
             y2="90.046272"
             id="line19738-6"
             style="stroke:#000000;stroke-opacity:1"
             transform="translate(-21.121078,-16.056893)" /><text
             xml:space="preserve"
             style="fill:#000000;fill-opacity:0;stroke:#000000;stroke-opacity:1"
             x="202.75107"
             y="94.727356"
             id="text5042-2"
             transform="translate(-21.121078,-16.056893)"><tspan
               sodipodi:role="line"
               id="tspan5040-8"
               x="202.75107"
               y="94.727356">30</tspan></text><text
             xml:space="preserve"
             style="fill:#000000;fill-opacity:0;stroke:#000000;stroke-opacity:1"
             x="123.10137"
             y="94.33744"
             id="text5042"
             transform="translate(-21.121078,-16.056893)"><tspan
               sodipodi:role="line"
               id="tspan5040"
               x="123.10137"
               y="94.33744">30</tspan></text><line
             fill="none"
             stroke="#ffffff"
             stroke-width="2"
             stroke-miterlimit="10"
             x1="159.53896"
             y1="76.076813"
             x2="184.53896"
             y2="76.076813"
             id="line19730-6-7"
             style="fill:#000000;fill-opacity:0;stroke:#000000;stroke-opacity:1;image-rendering:auto"
             transform="translate(-21.121078,-16.056893)" /><line
             fill="none"
             stroke="#ffffff"
             stroke-width="2"
             stroke-miterlimit="10"
             x1="141.41394"
             y1="62.035809"
             x2="201.41396"
             y2="62.035809"
             id="line19738-6-3"
             style="stroke:#000000;stroke-opacity:1"
             transform="translate(-21.121078,-16.056893)" /><g
             id="g19774"
             transform="translate(-50.055283,-43.324311)"
             style="stroke:#000000;stroke-opacity:1">
		<path
   fill="#ffffff"
   d="m 224.341,223.224 h 2.25 v 7.901 h -1.493 v -6.488 h -1.627 z"
   id="path19770"
   style="stroke:#000000;stroke-opacity:1" />
		<path
   fill="#ffffff"
   d="m 230.538,223.025 c 0.577,0 1.073,0.142 1.491,0.424 0.417,0.283 0.739,0.715 0.967,1.297 0.227,0.582 0.341,1.392 0.341,2.43 0,1.049 -0.115,1.866 -0.347,2.449 -0.23,0.583 -0.542,1.012 -0.932,1.287 -0.39,0.273 -0.883,0.411 -1.477,0.411 -0.594,0 -1.094,-0.138 -1.499,-0.414 -0.405,-0.276 -0.722,-0.695 -0.951,-1.257 -0.229,-0.562 -0.344,-1.362 -0.344,-2.401 0,-1.45 0.224,-2.501 0.671,-3.153 0.499,-0.715 1.191,-1.073 2.08,-1.073 z m 0.034,1.429 c -0.253,0 -0.479,0.082 -0.675,0.244 -0.196,0.163 -0.347,0.443 -0.45,0.841 -0.103,0.398 -0.155,0.979 -0.155,1.746 0,0.999 0.119,1.689 0.356,2.071 0.238,0.381 0.546,0.572 0.924,0.572 0.365,0 0.654,-0.181 0.869,-0.542 0.261,-0.437 0.391,-1.167 0.391,-2.191 0,-1.039 -0.117,-1.754 -0.351,-2.148 -0.234,-0.394 -0.537,-0.593 -0.909,-0.593 z"
   id="path19772"
   style="stroke:#000000;stroke-opacity:1" />
	</g><g
             id="g19780"
             transform="translate(-50.055283,-43.324311)">
		<path
   fill="#ffffff"
   d="m 155.584,253.883 h -1.466 c 0.04,-0.852 0.307,-1.523 0.803,-2.011 0.496,-0.489 1.133,-0.733 1.91,-0.733 0.48,0 0.903,0.101 1.27,0.304 0.367,0.202 0.661,0.494 0.881,0.875 0.221,0.382 0.331,0.769 0.331,1.163 0,0.469 -0.133,0.974 -0.4,1.515 -0.267,0.541 -0.755,1.18 -1.464,1.917 l -0.887,0.935 h 2.816 v 1.391 h -5.473 v -0.72 l 2.444,-2.492 c 0.591,-0.598 0.984,-1.079 1.179,-1.442 0.195,-0.363 0.292,-0.692 0.292,-0.985 0,-0.304 -0.101,-0.556 -0.303,-0.755 -0.203,-0.198 -0.463,-0.298 -0.782,-0.298 -0.322,0 -0.591,0.12 -0.806,0.36 -0.215,0.24 -0.33,0.564 -0.345,0.976 z"
   id="path19776" />
		<path
   fill="#ffffff"
   d="m 162.884,251.138 c 0.577,0 1.073,0.142 1.491,0.424 0.417,0.283 0.739,0.715 0.967,1.297 0.227,0.582 0.341,1.392 0.341,2.43 0,1.049 -0.115,1.866 -0.347,2.449 -0.23,0.583 -0.542,1.012 -0.932,1.287 -0.39,0.273 -0.883,0.411 -1.477,0.411 -0.594,0 -1.094,-0.138 -1.499,-0.414 -0.405,-0.276 -0.722,-0.695 -0.951,-1.257 -0.229,-0.562 -0.344,-1.362 -0.344,-2.401 0,-1.45 0.224,-2.501 0.671,-3.153 0.499,-0.715 1.192,-1.073 2.08,-1.073 z m 0.034,1.429 c -0.253,0 -0.479,0.082 -0.675,0.244 -0.196,0.163 -0.347,0.443 -0.45,0.841 -0.103,0.398 -0.155,0.979 -0.155,1.746 0,0.999 0.119,1.689 0.356,2.071 0.238,0.381 0.546,0.572 0.924,0.572 0.365,0 0.654,-0.181 0.869,-0.542 0.261,-0.437 0.391,-1.167 0.391,-2.191 0,-1.039 -0.117,-1.754 -0.351,-2.148 -0.234,-0.394 -0.536,-0.593 -0.909,-0.593 z"
   id="path19778" />
	</g><g
             id="g19786"
             transform="translate(-50.055283,-43.324311)">
		<path
   fill="#ffffff"
   d="m 234.958,253.784 h -1.466 c 0.04,-0.852 0.307,-1.523 0.803,-2.011 0.496,-0.489 1.133,-0.733 1.91,-0.733 0.48,0 0.903,0.101 1.27,0.304 0.367,0.202 0.661,0.494 0.881,0.875 0.221,0.382 0.331,0.769 0.331,1.163 0,0.469 -0.133,0.974 -0.4,1.515 -0.267,0.541 -0.755,1.18 -1.464,1.917 l -0.887,0.935 h 2.816 v 1.391 h -5.473 v -0.72 l 2.444,-2.492 c 0.591,-0.598 0.984,-1.079 1.179,-1.442 0.195,-0.363 0.292,-0.692 0.292,-0.985 0,-0.304 -0.101,-0.556 -0.303,-0.755 -0.203,-0.198 -0.463,-0.298 -0.782,-0.298 -0.322,0 -0.591,0.12 -0.806,0.36 -0.215,0.24 -0.33,0.564 -0.345,0.976 z"
   id="path19782" />
		<path
   fill="#ffffff"
   d="m 242.258,251.039 c 0.577,0 1.073,0.142 1.491,0.424 0.417,0.283 0.739,0.715 0.967,1.297 0.227,0.582 0.341,1.392 0.341,2.43 0,1.049 -0.115,1.866 -0.347,2.449 -0.23,0.583 -0.542,1.012 -0.932,1.287 -0.39,0.273 -0.883,0.411 -1.477,0.411 -0.594,0 -1.094,-0.138 -1.499,-0.414 -0.405,-0.276 -0.722,-0.695 -0.951,-1.257 -0.229,-0.562 -0.344,-1.362 -0.344,-2.401 0,-1.45 0.224,-2.501 0.671,-3.153 0.499,-0.715 1.192,-1.073 2.08,-1.073 z m 0.034,1.429 c -0.253,0 -0.479,0.082 -0.675,0.244 -0.196,0.163 -0.347,0.443 -0.45,0.841 -0.103,0.398 -0.155,0.979 -0.155,1.746 0,0.999 0.119,1.689 0.356,2.071 0.238,0.381 0.546,0.572 0.924,0.572 0.365,0 0.654,-0.181 0.869,-0.542 0.261,-0.437 0.391,-1.167 0.391,-2.191 0,-1.039 -0.117,-1.754 -0.351,-2.148 -0.234,-0.394 -0.536,-0.593 -0.909,-0.593 z"
   id="path19784" />
	</g><g
             id="g5424"
             transform="translate(-10.696445,-1.1096432)"><line
               fill="none"
               stroke="#ffffff"
               stroke-width="2"
               stroke-miterlimit="10"
               x1="149.27849"
               y1="33.051483"
               x2="174.27849"
               y2="33.051483"
               id="line19730-1"
               style="fill:#000000;fill-opacity:0;stroke:#000000;stroke-opacity:1;image-rendering:auto" /><line
               fill="none"
               stroke="#ffffff"
               stroke-width="2"
               stroke-miterlimit="10"
               x1="141.15349"
               y1="47.082489"
               x2="181.15349"
               y2="47.082489"
               id="line19732-2"
               style="stroke:#000000;stroke-opacity:1" /><line
               fill="none"
               stroke="#ffffff"
               stroke-width="2"
               stroke-miterlimit="10"
               x1="131.15349"
               y1="19.010483"
               x2="191.15349"
               y2="19.010483"
               id="line19738-9"
               style="stroke:#000000;stroke-opacity:1" /><line
               fill="none"
               stroke="#ffffff"
               stroke-width="2"
               stroke-miterlimit="10"
               x1="149.28757"
               y1="33.032188"
               x2="174.28757"
               y2="33.032188"
               id="line19724-0-0"
               style="stroke:#000000;stroke-opacity:1" /><line
               fill="none"
               stroke="#ffffff"
               stroke-width="2"
               stroke-miterlimit="10"
               x1="149.47557"
               y1="5.0321798"
               x2="174.47557"
               y2="5.0321798"
               id="line19730-6-6"
               style="fill:#000000;fill-opacity:0;stroke:#000000;stroke-opacity:1;image-rendering:auto" /><line
               fill="none"
               stroke="#ffffff"
               stroke-width="2"
               stroke-miterlimit="10"
               x1="131.35056"
               y1="-9.0088205"
               x2="191.35057"
               y2="-9.0088205"
               id="line19738-6-32"
               style="stroke:#000000;stroke-opacity:1" /><line
               fill="none"
               stroke="#ffffff"
               stroke-width="2"
               stroke-miterlimit="10"
               x1="149.58464"
               y1="-22.978281"
               x2="174.58464"
               y2="-22.978281"
               id="line19730-6-7-5"
               style="fill:#000000;fill-opacity:0;stroke:#000000;stroke-opacity:1;image-rendering:auto" /><line
               fill="none"
               stroke="#ffffff"
               stroke-width="2"
               stroke-miterlimit="10"
               x1="131.45963"
               y1="-37.019283"
               x2="191.45964"
               y2="-37.019283"
               id="line19738-6-3-4"
               style="stroke:#000000;stroke-opacity:1" /></g><g
             id="g5611"
             transform="translate(61.209362,44.954484)"><line
               fill="none"
               stroke="#ffffff"
               stroke-width="2"
               stroke-miterlimit="10"
               x1="77.682838"
               y1="-68.914734"
               x2="102.68284"
               y2="-68.914734"
               id="line19730-65"
               style="fill:#000000;fill-opacity:0;stroke:#000000;stroke-opacity:1;image-rendering:auto" /><line
               fill="none"
               stroke="#ffffff"
               stroke-width="2"
               stroke-miterlimit="10"
               x1="77.879921"
               y1="-96.934029"
               x2="102.87992"
               y2="-96.934029"
               id="line19730-6-68"
               style="fill:#000000;fill-opacity:0;stroke:#000000;stroke-opacity:1;image-rendering:auto" /><line
               fill="none"
               stroke="#ffffff"
               stroke-width="2"
               stroke-miterlimit="10"
               x1="59.754902"
               y1="-110.97504"
               x2="119.75492"
               y2="-110.97504"
               id="line19738-6-8"
               style="stroke:#000000;stroke-opacity:1" /><line
               fill="none"
               stroke="#ffffff"
               stroke-width="2"
               stroke-miterlimit="10"
               x1="77.988991"
               y1="-124.9445"
               x2="102.98899"
               y2="-124.9445"
               id="line19730-6-7-9"
               style="fill:#000000;fill-opacity:0;stroke:#000000;stroke-opacity:1;image-rendering:auto" /><line
               fill="none"
               stroke="#ffffff"
               stroke-width="2"
               stroke-miterlimit="10"
               x1="59.863972"
               y1="-138.98549"
               x2="119.86399"
               y2="-138.98549"
               id="line19738-6-3-2"
               style="stroke:#000000;stroke-opacity:1" /><text
               xml:space="preserve"
               style="font-size:24px;fill:#000000;fill-opacity:0;stroke:#000000;stroke-width:2;stroke-opacity:1"
               x="30.125639"
               y="-91.670807"
               id="text5615"><tspan
                 id="tspan5613"
                 style="stroke-width:2"
                 sodipodi:role="line"
                 x="30.125639"
                 y="-91.670807"></tspan></text><text
               xml:space="preserve"
               style="font-style:normal;font-variant:normal;font-weight:normal;font-stretch:normal;font-size:24px;font-family:FreeMono;-inkscape-font-specification:'FreeMono, Normal';font-variant-ligatures:normal;font-variant-caps:normal;font-variant-numeric:normal;font-variant-east-asian:normal;fill:#000000;fill-opacity:0;stroke:#000000;stroke-width:2;stroke-opacity:1"
               x="-27.684298"
               y="-85.298141"
               id="text5619"><tspan
                 sodipodi:role="line"
                 id="tspan5621"
                 x="-27.684298"
                 y="-85.298141"></tspan></text><text
               xml:space="preserve"
               style="font-style:normal;font-variant:normal;font-weight:normal;font-stretch:normal;font-size:24px;font-family:FreeMono;-inkscape-font-specification:'FreeMono, Normal';font-variant-ligatures:normal;font-variant-caps:normal;font-variant-numeric:normal;font-variant-east-asian:normal;fill:#000000;fill-opacity:0;stroke:#000000;stroke-width:2;stroke-opacity:1"
               x="-52.554214"
               y="-109.42388"
               id="text5674"><tspan
                 sodipodi:role="line"
                 id="tspan5672"
                 style="stroke-width:2"
                 x="-52.554214"
                 y="-109.42388"></tspan></text></g><text
             xml:space="preserve"
             style="font-style:normal;font-variant:normal;font-weight:normal;font-stretch:normal;font-size:16px;font-family:FreeMono;-inkscape-font-specification:'FreeMono, Normal';font-variant-ligatures:normal;font-variant-caps:normal;font-variant-numeric:normal;font-variant-east-asian:normal;fill:#000000;fill-opacity:0;stroke:#000000;stroke-width:2;stroke-opacity:1"
             x="104.19753"
             y="146.33543"
             id="text5686"><tspan
               sodipodi:role="line"
               id="tspan5684"
               style="font-style:normal;font-variant:normal;font-weight:normal;font-stretch:normal;font-size:10.6667px;font-family:FreeSans;-inkscape-font-specification:'FreeSans, Normal';font-variant-ligatures:normal;font-variant-caps:normal;font-variant-numeric:normal;font-variant-east-asian:normal;stroke-width:2"
               x="104.19753"
               y="146.33543">10</tspan></text><text
             xml:space="preserve"
             style="font-style:normal;font-variant:normal;font-weight:normal;font-stretch:normal;font-size:10.6667px;font-family:FreeSans;-inkscape-font-specification:'FreeSans, Normal';font-variant-ligatures:normal;font-variant-caps:normal;font-variant-numeric:normal;font-variant-east-asian:normal;fill:#000000;fill-opacity:0;stroke:#000000;stroke-width:2;stroke-opacity:1"
             x="174.65468"
             y="145.16618"
             id="text5690"><tspan
               sodipodi:role="line"
               id="tspan5688"
               style="stroke-width:2"
               x="174.65468"
               y="145.16618">10</tspan></text><text
             xml:space="preserve"
             style="font-style:normal;font-variant:normal;font-weight:normal;font-stretch:normal;font-size:10.6667px;font-family:'Droid Sans Fallback';-inkscape-font-specification:'Droid Sans Fallback, Normal';font-variant-ligatures:normal;font-variant-caps:normal;font-variant-numeric:normal;font-variant-east-asian:normal;fill:#000000;fill-opacity:0;stroke:#000000;stroke-width:2;stroke-opacity:1"
             x="107.60308"
             y="116.60423"
             id="text5694"><tspan
               sodipodi:role="line"
               id="tspan5692"
               style="font-style:normal;font-variant:normal;font-weight:normal;font-stretch:normal;font-size:10.6667px;font-family:'Droid Sans Fallback';-inkscape-font-specification:'Droid Sans Fallback, Normal';font-variant-ligatures:normal;font-variant-caps:normal;font-variant-numeric:normal;font-variant-east-asian:normal;stroke-width:2"
               x="107.60308"
               y="116.60423">20</tspan></text><text
             xml:space="preserve"
             style="font-style:normal;font-variant:normal;font-weight:normal;font-stretch:normal;font-size:10.6667px;font-family:'Droid Sans Fallback';-inkscape-font-specification:'Droid Sans Fallback, Normal';font-variant-ligatures:normal;font-variant-caps:normal;font-variant-numeric:normal;font-variant-east-asian:normal;fill:#000000;fill-opacity:0;stroke:#000000;stroke-width:2;stroke-opacity:1"
             x="106.81702"
             y="130.2231"
             id="text5698"><tspan
               sodipodi:role="line"
               id="tspan5696"
               style="stroke-width:2"
               x="106.81702"
               y="130.2231">10</tspan></text></g><text
           xml:space="preserve"
           style="font-style:normal;font-variant:normal;font-weight:normal;font-stretch:normal;font-size:10.6667px;font-family:'Droid Sans Fallback';-inkscape-font-specification:'Droid Sans Fallback, Normal';font-variant-ligatures:normal;font-variant-caps:normal;font-variant-numeric:normal;font-variant-east-asian:normal;fill:#000000;fill-opacity:0;stroke:#000000;stroke-width:2;stroke-opacity:1"
           x="85.843483"
           y="134.28548"
           id="text5702"><tspan
             sodipodi:role="line"
             id="tspan5700"
             style="stroke-width:2"
             x="85.843483"
             y="134.28548" /></text><text
           xml:space="preserve"
           style="font-style:normal;font-variant:normal;font-weight:normal;font-stretch:normal;font-size:6.66669px;font-family:'Droid Sans Fallback';-inkscape-font-specification:'Droid Sans Fallback, Normal';font-variant-ligatures:normal;font-variant-caps:normal;font-variant-numeric:normal;font-variant-east-asian:normal;fill:#000000;fill-opacity:0;stroke:#000000;stroke-width:1.25;stroke-opacity:1"
           x="-74.402557"
           y="33.616173"
           id="text5771"><tspan
             sodipodi:role="line"
             id="tspan5769"
             style="stroke-width:1.25"
             x="-74.402557"
             y="33.616173" /></text></g></g></g></g>

</svg>
